<svg id="color" enable-background="new 0 0 24 24" height="512" viewBox="0 0 24 24" width="512" xmlns="http://www.w3.org/2000/svg"><path d="m7 2.75c-.552 0-1 .447-1 1v3c0 .553.448 1 1 1s1-.447 1-1v-3c0-.553-.448-1-1-1z" fill="#607d8b"/><path d="m17 2.75c-.552 0-1 .447-1 1v3c0 .553.448 1 1 1s1-.447 1-1v-3c0-.553-.448-1-1-1z" fill="#607d8b"/><path d="m7 2.75c-.553 0-1 .447-1 1v3c0 .553.447 1 1 1z" fill="#546d79"/><path d="m17 2.75c-.553 0-1 .447-1 1v3c0 .553.447 1 1 1z" fill="#546d79"/><path d="m20.25 6h-16.5c-.414 0-.75.336-.75.75v16.5c0 .24.115.466.309.606.194.142.444.182.672.107l8.019-2.594 8.019 2.595.231.036c.157 0 .312-.049.441-.144.194-.14.309-.366.309-.606v-16.5c0-.414-.336-.75-.75-.75z" fill="#ffc107"/><path d="m23.25 0h-22.5c-.414 0-.75.336-.75.75v1.5c0 .965.785 1.75 1.75 1.75h20.5c.965 0 1.75-.785 1.75-1.75v-1.5c0-.414-.336-.75-.75-.75z" fill="#455a64"/><path d="m15.227 14 1.671-2.197c.121-.159.136-.374.038-.548s-.283-.272-.488-.252l-2.844.298-1.149-2.509c-.163-.355-.746-.355-.909 0l-1.149 2.509-2.844-.298c-.203-.021-.39.079-.488.252-.098.174-.083.389.038.548l1.67 2.197-1.671 2.197c-.121.159-.136.374-.038.548.098.173.285.277.488.252l2.844-.298 1.149 2.509c.082.178.26.292.455.292s.373-.114.455-.292l1.149-2.509 2.844.298c.206.025.391-.079.488-.252.098-.174.083-.389-.038-.548z" fill="#fafafa"/><path d="m12 6h-8.25c-.414 0-.75.336-.75.75v16.5c0 .24.115.466.309.606.122.09.267.139.414.144h.054c.069-.002.137-.014.204-.036l8.019-2.595v-1.869c-.195 0-.373-.114-.455-.292l-1.149-2.509-2.844.298c-.02.003-.04.004-.06.004-.18 0-.339-.1-.428-.256-.098-.174-.083-.389.038-.548l1.671-2.197-1.671-2.197c-.121-.159-.136-.374-.038-.548.09-.158.254-.255.436-.255.017 0 .035.001.052.003l2.844.298 1.149-2.509c.082-.178.268-.267.455-.267z" fill="#dea806"/><path d="m12 0h-11.25c-.414 0-.75.336-.75.75v1.5c0 .965.785 1.75 1.75 1.75h10.25z" fill="#3c4e57"/><path d="m12 8.525c-.187 0-.373.089-.455.267l-1.149 2.509-2.844-.298c-.017-.002-.035-.003-.052-.003-.182 0-.346.097-.436.255-.098.174-.083.389.038.548l1.671 2.197-1.671 2.197c-.121.159-.136.374-.038.548.088.156.248.256.428.256.02 0 .04-.001.061-.004l2.844-.298 1.149 2.509c.081.178.259.292.454.292z" fill="#dadada"/></svg>